<mxfile host="Electron" modified="2024-06-13T22:25:24.374Z" agent="Mozilla/5.0 (Windows NT 10.0; Win64; x64) AppleWebKit/537.36 (KHTML, like Gecko) draw.io/24.5.1 Chrome/124.0.6367.207 Electron/30.0.6 Safari/537.36" etag="tID2aOEegh_z6YiDLwGk" version="24.5.1" type="device">
  <diagram name="Page-1" id="zBKy0kMCelvRQmi2Mbho">
    <mxGraphModel dx="2555" dy="1038" grid="1" gridSize="10" guides="1" tooltips="1" connect="1" arrows="1" fold="1" page="1" pageScale="1" pageWidth="827" pageHeight="1169" math="0" shadow="0">
      <root>
        <mxCell id="0" />
        <mxCell id="1" parent="0" />
        <mxCell id="weXLyEFvcO7NlNfG365v-13" value="" style="rounded=0;whiteSpace=wrap;html=1;" parent="1" vertex="1">
          <mxGeometry y="260" width="384" height="216" as="geometry" />
        </mxCell>
        <mxCell id="weXLyEFvcO7NlNfG365v-12" value="" style="rounded=0;whiteSpace=wrap;html=1;" parent="1" vertex="1">
          <mxGeometry y="1.4210854715202004e-14" width="384" height="216" as="geometry" />
        </mxCell>
        <mxCell id="weXLyEFvcO7NlNfG365v-3" value="Play" style="rounded=0;whiteSpace=wrap;html=1;" parent="1" vertex="1">
          <mxGeometry x="134.4" y="67.2" width="115.2" height="21.6" as="geometry" />
        </mxCell>
        <mxCell id="weXLyEFvcO7NlNfG365v-4" value="Help" style="rounded=0;whiteSpace=wrap;html=1;" parent="1" vertex="1">
          <mxGeometry x="134.4" y="99.6" width="115.2" height="21.6" as="geometry" />
        </mxCell>
        <mxCell id="weXLyEFvcO7NlNfG365v-5" value="Options" style="rounded=0;whiteSpace=wrap;html=1;" parent="1" vertex="1">
          <mxGeometry x="134.4" y="132" width="115.2" height="21.6" as="geometry" />
        </mxCell>
        <mxCell id="weXLyEFvcO7NlNfG365v-6" value="Quit" style="rounded=0;whiteSpace=wrap;html=1;" parent="1" vertex="1">
          <mxGeometry x="134.4" y="164.4" width="115.2" height="21.6" as="geometry" />
        </mxCell>
        <mxCell id="weXLyEFvcO7NlNfG365v-8" value="Main Menu" style="rounded=0;whiteSpace=wrap;html=1;strokeColor=default;fontSize=6;" parent="1" vertex="1">
          <mxGeometry x="19.2" y="270.8" width="38.4" height="21.6" as="geometry" />
        </mxCell>
        <mxCell id="weXLyEFvcO7NlNfG365v-19" value="" style="endArrow=classic;html=1;rounded=0;exitX=1;exitY=0.5;exitDx=0;exitDy=0;entryX=0;entryY=0;entryDx=0;entryDy=0;" parent="1" source="weXLyEFvcO7NlNfG365v-4" target="weXLyEFvcO7NlNfG365v-13" edge="1">
          <mxGeometry width="50" height="50" relative="1" as="geometry">
            <mxPoint x="220" y="330" as="sourcePoint" />
            <mxPoint x="270" y="280" as="targetPoint" />
          </mxGeometry>
        </mxCell>
        <mxCell id="weXLyEFvcO7NlNfG365v-20" value="" style="rounded=0;whiteSpace=wrap;html=1;" parent="1" vertex="1">
          <mxGeometry y="520" width="384" height="216" as="geometry" />
        </mxCell>
        <mxCell id="weXLyEFvcO7NlNfG365v-21" value="Main Menu" style="rounded=0;whiteSpace=wrap;html=1;fontSize=6;" parent="1" vertex="1">
          <mxGeometry x="19.19999999999999" y="530.8" width="38.4" height="21.6" as="geometry" />
        </mxCell>
        <mxCell id="weXLyEFvcO7NlNfG365v-22" value="" style="endArrow=classic;html=1;rounded=0;exitX=1;exitY=0.5;exitDx=0;exitDy=0;entryX=0.5;entryY=0;entryDx=0;entryDy=0;" parent="1" source="weXLyEFvcO7NlNfG365v-5" target="weXLyEFvcO7NlNfG365v-20" edge="1">
          <mxGeometry width="50" height="50" relative="1" as="geometry">
            <mxPoint x="220" y="330" as="sourcePoint" />
            <mxPoint x="270" y="280" as="targetPoint" />
          </mxGeometry>
        </mxCell>
        <mxCell id="weXLyEFvcO7NlNfG365v-23" value="" style="rounded=0;whiteSpace=wrap;html=1;" parent="1" vertex="1">
          <mxGeometry y="780" width="384" height="216" as="geometry" />
        </mxCell>
        <mxCell id="weXLyEFvcO7NlNfG365v-24" value="Main Menu" style="rounded=0;whiteSpace=wrap;html=1;fontSize=6;" parent="1" vertex="1">
          <mxGeometry x="19.19999999999999" y="790.8" width="38.4" height="21.6" as="geometry" />
        </mxCell>
        <mxCell id="weXLyEFvcO7NlNfG365v-25" value="" style="endArrow=classic;html=1;rounded=0;exitX=1;exitY=0.5;exitDx=0;exitDy=0;entryX=1;entryY=0;entryDx=0;entryDy=0;" parent="1" source="weXLyEFvcO7NlNfG365v-6" target="weXLyEFvcO7NlNfG365v-23" edge="1">
          <mxGeometry width="50" height="50" relative="1" as="geometry">
            <mxPoint x="220" y="430" as="sourcePoint" />
            <mxPoint x="270" y="380" as="targetPoint" />
          </mxGeometry>
        </mxCell>
        <mxCell id="_vzr-kM5X8vqc5R-t-4t-1" value="" style="endArrow=classic;html=1;rounded=0;exitX=1;exitY=0.5;exitDx=0;exitDy=0;entryX=0.25;entryY=1;entryDx=0;entryDy=0;" parent="1" source="weXLyEFvcO7NlNfG365v-8" target="weXLyEFvcO7NlNfG365v-12" edge="1">
          <mxGeometry width="50" height="50" relative="1" as="geometry">
            <mxPoint x="170" y="480" as="sourcePoint" />
            <mxPoint x="220" y="430" as="targetPoint" />
          </mxGeometry>
        </mxCell>
        <mxCell id="_vzr-kM5X8vqc5R-t-4t-2" value="" style="endArrow=classic;html=1;rounded=0;exitX=1;exitY=0.5;exitDx=0;exitDy=0;entryX=0.5;entryY=1;entryDx=0;entryDy=0;" parent="1" source="weXLyEFvcO7NlNfG365v-21" target="weXLyEFvcO7NlNfG365v-12" edge="1">
          <mxGeometry width="50" height="50" relative="1" as="geometry">
            <mxPoint x="170" y="610" as="sourcePoint" />
            <mxPoint x="220" y="560" as="targetPoint" />
          </mxGeometry>
        </mxCell>
        <mxCell id="_vzr-kM5X8vqc5R-t-4t-3" value="" style="endArrow=classic;html=1;rounded=0;exitX=1;exitY=0.5;exitDx=0;exitDy=0;entryX=0.75;entryY=1;entryDx=0;entryDy=0;" parent="1" source="weXLyEFvcO7NlNfG365v-24" target="weXLyEFvcO7NlNfG365v-12" edge="1">
          <mxGeometry width="50" height="50" relative="1" as="geometry">
            <mxPoint x="170" y="820" as="sourcePoint" />
            <mxPoint x="220" y="770" as="targetPoint" />
          </mxGeometry>
        </mxCell>
        <mxCell id="_vzr-kM5X8vqc5R-t-4t-4" value="Game" style="rounded=0;whiteSpace=wrap;html=1;fontSize=30;" parent="1" vertex="1">
          <mxGeometry x="420" y="1.4210854715202004e-14" width="384" height="216" as="geometry" />
        </mxCell>
        <mxCell id="_vzr-kM5X8vqc5R-t-4t-5" value="" style="endArrow=classic;html=1;rounded=0;exitX=1;exitY=0.5;exitDx=0;exitDy=0;entryX=0;entryY=0.5;entryDx=0;entryDy=0;" parent="1" source="weXLyEFvcO7NlNfG365v-3" target="_vzr-kM5X8vqc5R-t-4t-4" edge="1">
          <mxGeometry width="50" height="50" relative="1" as="geometry">
            <mxPoint x="420" y="210" as="sourcePoint" />
            <mxPoint x="470" y="160" as="targetPoint" />
          </mxGeometry>
        </mxCell>
        <mxCell id="_vzr-kM5X8vqc5R-t-4t-6" value="" style="rounded=0;whiteSpace=wrap;html=1;" parent="1" vertex="1">
          <mxGeometry x="420" y="260" width="384" height="216" as="geometry" />
        </mxCell>
        <mxCell id="_vzr-kM5X8vqc5R-t-4t-12" value="" style="rounded=0;whiteSpace=wrap;html=1;" parent="1" vertex="1">
          <mxGeometry x="536" y="310" width="152" height="150" as="geometry" />
        </mxCell>
        <mxCell id="_vzr-kM5X8vqc5R-t-4t-7" value="Resume" style="rounded=0;whiteSpace=wrap;html=1;" parent="1" vertex="1">
          <mxGeometry x="554.4" y="327.2" width="115.2" height="21.6" as="geometry" />
        </mxCell>
        <mxCell id="_vzr-kM5X8vqc5R-t-4t-8" value="Help" style="rounded=0;whiteSpace=wrap;html=1;" parent="1" vertex="1">
          <mxGeometry x="554.4" y="359.59999999999997" width="115.2" height="21.6" as="geometry" />
        </mxCell>
        <mxCell id="_vzr-kM5X8vqc5R-t-4t-9" value="Options" style="rounded=0;whiteSpace=wrap;html=1;" parent="1" vertex="1">
          <mxGeometry x="554.4" y="392" width="115.2" height="21.6" as="geometry" />
        </mxCell>
        <mxCell id="_vzr-kM5X8vqc5R-t-4t-10" value="Main Menu" style="rounded=0;whiteSpace=wrap;html=1;" parent="1" vertex="1">
          <mxGeometry x="554.4" y="424.40000000000003" width="115.2" height="21.6" as="geometry" />
        </mxCell>
        <mxCell id="3T2s_Ahl6RaIGaYk7VLp-1" value="" style="endArrow=classic;html=1;rounded=0;exitX=0.5;exitY=1;exitDx=0;exitDy=0;entryX=0.5;entryY=0;entryDx=0;entryDy=0;" edge="1" parent="1" source="_vzr-kM5X8vqc5R-t-4t-4" target="_vzr-kM5X8vqc5R-t-4t-6">
          <mxGeometry width="50" height="50" relative="1" as="geometry">
            <mxPoint x="500" y="460" as="sourcePoint" />
            <mxPoint x="550" y="410" as="targetPoint" />
          </mxGeometry>
        </mxCell>
        <mxCell id="3T2s_Ahl6RaIGaYk7VLp-2" value="" style="rounded=0;whiteSpace=wrap;html=1;" vertex="1" parent="1">
          <mxGeometry x="420" y="520" width="384" height="216" as="geometry" />
        </mxCell>
        <mxCell id="3T2s_Ahl6RaIGaYk7VLp-3" value="" style="rounded=0;whiteSpace=wrap;html=1;" vertex="1" parent="1">
          <mxGeometry x="536" y="570" width="152" height="150" as="geometry" />
        </mxCell>
        <mxCell id="3T2s_Ahl6RaIGaYk7VLp-4" value="Help" style="rounded=0;whiteSpace=wrap;html=1;" vertex="1" parent="1">
          <mxGeometry x="554.4" y="587.2" width="115.2" height="21.6" as="geometry" />
        </mxCell>
        <mxCell id="3T2s_Ahl6RaIGaYk7VLp-8" value="" style="rounded=0;whiteSpace=wrap;html=1;" vertex="1" parent="1">
          <mxGeometry x="420" y="780" width="384" height="216" as="geometry" />
        </mxCell>
        <mxCell id="3T2s_Ahl6RaIGaYk7VLp-9" value="" style="rounded=0;whiteSpace=wrap;html=1;" vertex="1" parent="1">
          <mxGeometry x="536" y="830" width="152" height="150" as="geometry" />
        </mxCell>
        <mxCell id="3T2s_Ahl6RaIGaYk7VLp-10" value="Options" style="rounded=0;whiteSpace=wrap;html=1;" vertex="1" parent="1">
          <mxGeometry x="554.4" y="847.2" width="115.2" height="21.6" as="geometry" />
        </mxCell>
        <mxCell id="3T2s_Ahl6RaIGaYk7VLp-14" value="" style="endArrow=classic;html=1;rounded=0;exitX=0;exitY=0.5;exitDx=0;exitDy=0;entryX=0;entryY=0;entryDx=0;entryDy=0;" edge="1" parent="1" source="_vzr-kM5X8vqc5R-t-4t-8" target="3T2s_Ahl6RaIGaYk7VLp-2">
          <mxGeometry width="50" height="50" relative="1" as="geometry">
            <mxPoint x="590" y="580" as="sourcePoint" />
            <mxPoint x="640" y="530" as="targetPoint" />
          </mxGeometry>
        </mxCell>
        <mxCell id="3T2s_Ahl6RaIGaYk7VLp-15" value="" style="endArrow=classic;html=1;rounded=0;exitX=0.5;exitY=1;exitDx=0;exitDy=0;" edge="1" parent="1" source="_vzr-kM5X8vqc5R-t-4t-9" target="3T2s_Ahl6RaIGaYk7VLp-8">
          <mxGeometry width="50" height="50" relative="1" as="geometry">
            <mxPoint x="590" y="580" as="sourcePoint" />
            <mxPoint x="640" y="530" as="targetPoint" />
          </mxGeometry>
        </mxCell>
        <mxCell id="3T2s_Ahl6RaIGaYk7VLp-16" value="" style="endArrow=classic;html=1;rounded=0;exitX=0;exitY=0.5;exitDx=0;exitDy=0;entryX=1;entryY=1;entryDx=0;entryDy=0;" edge="1" parent="1" source="_vzr-kM5X8vqc5R-t-4t-10" target="weXLyEFvcO7NlNfG365v-12">
          <mxGeometry width="50" height="50" relative="1" as="geometry">
            <mxPoint x="350" y="570" as="sourcePoint" />
            <mxPoint x="400" y="520" as="targetPoint" />
          </mxGeometry>
        </mxCell>
        <mxCell id="3T2s_Ahl6RaIGaYk7VLp-17" value="" style="endArrow=classic;html=1;rounded=0;exitX=1;exitY=0.5;exitDx=0;exitDy=0;entryX=0.75;entryY=1;entryDx=0;entryDy=0;" edge="1" parent="1" source="_vzr-kM5X8vqc5R-t-4t-7" target="_vzr-kM5X8vqc5R-t-4t-4">
          <mxGeometry width="50" height="50" relative="1" as="geometry">
            <mxPoint x="680" y="400" as="sourcePoint" />
            <mxPoint x="730" y="350" as="targetPoint" />
          </mxGeometry>
        </mxCell>
      </root>
    </mxGraphModel>
  </diagram>
</mxfile>
